<svg width="46" height="48" viewBox="0 0 46 48" fill="none" xmlns="http://www.w3.org/2000/svg">
<path d="M18.4407 7.98261C20.3394 4.52447 25.3077 4.52446 27.2064 7.9826L38.5228 28.5936C40.3523 31.9258 37.9414 36 34.14 36H11.5071C7.70569 36 5.29471 31.9258 7.12424 28.5936L18.4407 7.98261Z" fill="#FF7300"/>
<path d="M21.8573 15H23.5573L23.3773 25.18H22.0373L21.8573 15ZM22.7773 29.08C22.4573 29.08 22.1973 28.9733 21.9973 28.76C21.7973 28.5467 21.6973 28.2867 21.6973 27.98C21.6973 27.6733 21.7973 27.4133 21.9973 27.2C22.1973 26.9867 22.4573 26.88 22.7773 26.88C23.0706 26.88 23.3239 26.9867 23.5373 27.2C23.7506 27.4133 23.8573 27.6733 23.8573 27.98C23.8573 28.2867 23.7506 28.5467 23.5373 28.76C23.3239 28.9733 23.0706 29.08 22.7773 29.08Z" fill="black"/>
</svg>
