<svg width="46" height="48" viewBox="0 0 46 48" fill="none" xmlns="http://www.w3.org/2000/svg">
<path d="M19.7559 8.7041C21.0436 6.35958 24.3472 6.28626 25.7607 8.48438L25.8916 8.7041L37.208 29.3154C38.4887 31.648 36.8006 34.5 34.1396 34.5H11.5068C8.92894 34.4998 7.26482 31.8231 8.32812 29.5352L8.43945 29.3154L19.7559 8.7041Z" fill="#E6E6E6" stroke="black" stroke-width="3"/>
<path d="M21.3141 16H24.2141L23.8941 25.52H21.6141L21.3141 16ZM22.7741 30.14C22.2941 30.14 21.8941 29.9867 21.5741 29.68C21.2541 29.3733 21.0941 28.9933 21.0941 28.54C21.0941 28.0867 21.2541 27.7067 21.5741 27.4C21.8941 27.08 22.2941 26.92 22.7741 26.92C23.2541 26.92 23.6474 27.08 23.9541 27.4C24.2741 27.7067 24.4341 28.0867 24.4341 28.54C24.4341 28.9933 24.2741 29.3733 23.9541 29.68C23.6474 29.9867 23.2541 30.14 22.7741 30.14Z" fill="black"/>
</svg>
