<svg width="46" height="48" viewBox="0 0 46 48" fill="none" xmlns="http://www.w3.org/2000/svg">
<path d="M18.4407 7.98261C20.3394 4.52447 25.3077 4.52446 27.2064 7.9826L38.5228 28.5936C40.3523 31.9258 37.9414 36 34.14 36H11.5071C7.70569 36 5.29471 31.9258 7.12424 28.5936L18.4407 7.98261Z" fill="#FFC800"/>
<path d="M21.9161 15H23.6161L23.4361 25.18H22.0961L21.9161 15ZM22.8361 29.08C22.5161 29.08 22.2561 28.9733 22.0561 28.76C21.8561 28.5467 21.7561 28.2867 21.7561 27.98C21.7561 27.6733 21.8561 27.4133 22.0561 27.2C22.2561 26.9867 22.5161 26.88 22.8361 26.88C23.1295 26.88 23.3828 26.9867 23.5961 27.2C23.8095 27.4133 23.9161 27.6733 23.9161 27.98C23.9161 28.2867 23.8095 28.5467 23.5961 28.76C23.3828 28.9733 23.1295 29.08 22.8361 29.08Z" fill="black"/>
</svg>
