<svg width="223" height="48" viewBox="0 0 223 48" fill="none" xmlns="http://www.w3.org/2000/svg">
<path d="M18.4407 7.98261C20.3394 4.52447 25.3077 4.52446 27.2064 7.9826L38.5228 28.5936C40.3523 31.9258 37.9414 36 34.14 36H11.5071C7.70569 36 5.29471 31.9258 7.12424 28.5936L18.4407 7.98261Z" fill="#00C91B"/>
<path d="M21.9161 15H23.6161L23.4361 25.18H22.0961L21.9161 15ZM22.8361 29.08C22.5161 29.08 22.2561 28.9733 22.0561 28.76C21.8561 28.5467 21.7561 28.2867 21.7561 27.98C21.7561 27.6733 21.8561 27.4133 22.0561 27.2C22.2561 26.9867 22.5161 26.88 22.8361 26.88C23.1295 26.88 23.3828 26.9867 23.5961 27.2C23.8095 27.4133 23.9161 27.6733 23.9161 27.98C23.9161 28.2867 23.8095 28.5467 23.5961 28.76C23.3828 28.9733 23.1295 29.08 22.8361 29.08Z" fill="black"/>
<path d="M77.4407 7.98261C79.3394 4.52447 84.3077 4.52446 86.2064 7.9826L97.5228 28.5936C99.3523 31.9258 96.9414 36 93.14 36H70.5071C66.7057 36 64.2947 31.9258 66.1242 28.5936L77.4407 7.98261Z" fill="#FFC800"/>
<path d="M80.9161 15H82.6161L82.4361 25.18H81.0961L80.9161 15ZM81.8361 29.08C81.5161 29.08 81.2561 28.9733 81.0561 28.76C80.8561 28.5467 80.7561 28.2867 80.7561 27.98C80.7561 27.6733 80.8561 27.4133 81.0561 27.2C81.2561 26.9867 81.5161 26.88 81.8361 26.88C82.1295 26.88 82.3828 26.9867 82.5961 27.2C82.8095 27.4133 82.9161 27.6733 82.9161 27.98C82.9161 28.2867 82.8095 28.5467 82.5961 28.76C82.3828 28.9733 82.1295 29.08 81.8361 29.08Z" fill="black"/>
<path d="M195.441 7.98261C197.339 4.52447 202.308 4.52446 204.206 7.9826L215.523 28.5936C217.352 31.9258 214.941 36 211.14 36H188.507C184.706 36 182.295 31.9258 184.124 28.5936L195.441 7.98261Z" fill="#FF0000"/>
<path d="M198.857 15H200.557L200.377 25.18H199.037L198.857 15ZM199.777 29.08C199.457 29.08 199.197 28.9733 198.997 28.76C198.797 28.5467 198.697 28.2867 198.697 27.98C198.697 27.6733 198.797 27.4133 198.997 27.2C199.197 26.9867 199.457 26.88 199.777 26.88C200.071 26.88 200.324 26.9867 200.537 27.2C200.751 27.4133 200.857 27.6733 200.857 27.98C200.857 28.2867 200.751 28.5467 200.537 28.76C200.324 28.9733 200.071 29.08 199.777 29.08Z" fill="black"/>
<path d="M136.441 7.98261C138.339 4.52447 143.308 4.52446 145.206 7.9826L156.523 28.5936C158.352 31.9258 155.941 36 152.14 36H129.507C125.706 36 123.295 31.9258 125.124 28.5936L136.441 7.98261Z" fill="#FF7300"/>
<path d="M139.857 15H141.557L141.377 25.18H140.037L139.857 15ZM140.777 29.08C140.457 29.08 140.197 28.9733 139.997 28.76C139.797 28.5467 139.697 28.2867 139.697 27.98C139.697 27.6733 139.797 27.4133 139.997 27.2C140.197 26.9867 140.457 26.88 140.777 26.88C141.071 26.88 141.324 26.9867 141.537 27.2C141.751 27.4133 141.857 27.6733 141.857 27.98C141.857 28.2867 141.751 28.5467 141.537 28.76C141.324 28.9733 141.071 29.08 140.777 29.08Z" fill="black"/>
</svg>
